<svg xmlns="http://www.w3.org/2000/svg" width="42" height="76" viewBox="0 0 42 76" fill="none"><path d="M21 0.5C32.3218 0.5 41.5 9.67816 41.5 21C41.5 32.3218 32.3218 41.5 21 41.5C9.67816 41.5 0.5 32.3218 0.5 21C0.5 9.67816 9.67816 0.5 21 0.5Z" fill="#FFFDFA"></path><path d="M21 0.5C32.3218 0.5 41.5 9.67816 41.5 21C41.5 32.3218 32.3218 41.5 21 41.5C9.67816 41.5 0.5 32.3218 0.5 21C0.5 9.67816 9.67816 0.5 21 0.5Z" stroke="#F1EDE8"></path><path d="M23.25 22.125C23.5607 22.125 23.8125 22.3768 23.8125 22.6875C23.8125 22.9982 23.5607 23.25 23.25 23.25H18.75C18.4393 23.25 18.1875 22.9982 18.1875 22.6875C18.1875 22.3768 18.4393 22.125 18.75 22.125H23.25Z" fill="#1B1B1B"></path><path d="M23.25 19.875C23.5607 19.875 23.8125 20.1268 23.8125 20.4375C23.8125 20.7482 23.5607 21 23.25 21H18.75C18.4393 21 18.1875 20.7482 18.1875 20.4375C18.1875 20.1268 18.4393 19.875 18.75 19.875H23.25Z" fill="#1B1B1B"></path><path d="M14.8125 27.1875V15.375C14.8125 15.0766 14.9311 14.7906 15.1421 14.5796C15.3531 14.3686 15.6391 14.25 15.9375 14.25H18.75C19.0607 14.25 19.3125 14.5018 19.3125 14.8125C19.3125 15.1232 19.0607 15.375 18.75 15.375H15.9375V27.1875H26.0625V15.375H23.25C22.9393 15.375 22.6875 15.1232 22.6875 14.8125C22.6875 14.5018 22.9393 14.25 23.25 14.25H26.0625C26.3609 14.25 26.6469 14.3686 26.8579 14.5796C27.0689 14.7906 27.1875 15.0766 27.1875 15.375V27.1875C27.1875 27.4859 27.0689 27.7719 26.8579 27.9829C26.6469 28.1939 26.3609 28.3125 26.0625 28.3125H15.9375C15.6391 28.3125 15.3531 28.1939 15.1421 27.9829C14.9311 27.7719 14.8125 27.4859 14.8125 27.1875Z" fill="#1B1B1B"></path><path d="M23.25 16.5C23.25 15.9033 23.0128 15.3311 22.5908 14.9092C22.1689 14.4872 21.5967 14.25 21 14.25C20.4033 14.25 19.8311 14.4872 19.4092 14.9092C18.9872 15.3311 18.75 15.9033 18.75 16.5H23.25ZM24.375 17.0625C24.375 17.3732 24.1232 17.625 23.8125 17.625H18.1875C17.8768 17.625 17.625 17.3732 17.625 17.0625V16.5C17.625 15.6049 17.9808 14.7467 18.6138 14.1138C19.2467 13.4808 20.1049 13.125 21 13.125C21.8951 13.125 22.7533 13.4808 23.3862 14.1138C24.0192 14.7467 24.375 15.6049 24.375 16.5V17.0625Z" fill="#1B1B1B"></path><rect width="1" height="34" transform="translate(20.5 42)" fill="#F1EDE8"></rect></svg>