<svg xmlns="http://www.w3.org/2000/svg" width="42" height="76" viewBox="0 0 42 76" fill="none"><path d="M21 0.5C32.3218 0.5 41.5 9.67816 41.5 21C41.5 32.3218 32.3218 41.5 21 41.5C9.67816 41.5 0.5 32.3218 0.5 21C0.5 9.67816 9.67816 0.5 21 0.5Z" fill="#FFFDFA"></path><path d="M21 0.5C32.3218 0.5 41.5 9.67816 41.5 21C41.5 32.3218 32.3218 41.5 21 41.5C9.67816 41.5 0.5 32.3218 0.5 21C0.5 9.67816 9.67816 0.5 21 0.5Z" stroke="#F1EDE8"></path><path d="M15.375 24.375V26.0625H26.625V24.375H15.375ZM27.75 26.0625C27.75 26.6838 27.2463 27.1875 26.625 27.1875H15.375C14.7537 27.1875 14.25 26.6838 14.25 26.0625V24.375C14.25 23.7537 14.7537 23.25 15.375 23.25H26.625C27.2463 23.25 27.75 23.7537 27.75 24.375V26.0625Z" fill="#1B1B1B"></path><path d="M15.375 19.3125V21H26.625V19.3125H15.375ZM27.75 21C27.75 21.6213 27.2463 22.125 26.625 22.125H15.375C14.7537 22.125 14.25 21.6213 14.25 21V19.3125C14.25 18.6912 14.7537 18.1875 15.375 18.1875H26.625C27.2463 18.1875 27.75 18.6912 27.75 19.3125V21Z" fill="#1B1B1B"></path><path d="M22.6875 14.25C22.9982 14.25 23.25 14.5018 23.25 14.8125C23.25 15.1232 22.9982 15.375 22.6875 15.375H19.3125C19.0018 15.375 18.75 15.1232 18.75 14.8125C18.75 14.5018 19.0018 14.25 19.3125 14.25H22.6875Z" fill="#1B1B1B"></path><path d="M20.4375 16.5V13.125C20.4375 12.8143 20.6893 12.5625 21 12.5625C21.3107 12.5625 21.5625 12.8143 21.5625 13.125V16.5C21.5625 16.8107 21.3107 17.0625 21 17.0625C20.6893 17.0625 20.4375 16.8107 20.4375 16.5Z" fill="#1B1B1B"></path><rect width="1" height="34" transform="translate(20.5 42)" fill="#F1EDE8"></rect></svg>