<svg xmlns="http://www.w3.org/2000/svg" width="42" height="76" viewBox="0 0 42 76" fill="none"><path d="M21 0.5C32.3218 0.5 41.5 9.67816 41.5 21C41.5 32.3218 32.3218 41.5 21 41.5C9.67816 41.5 0.5 32.3218 0.5 21C0.5 9.67816 9.67816 0.5 21 0.5Z" fill="#FFFDFA"></path><path d="M21 0.5C32.3218 0.5 41.5 9.67816 41.5 21C41.5 32.3218 32.3218 41.5 21 41.5C9.67816 41.5 0.5 32.3218 0.5 21C0.5 9.67816 9.67816 0.5 21 0.5Z" stroke="#F1EDE8"></path><path d="M27.1875 22.6875C27.4982 22.6875 27.75 22.9393 27.75 23.25C27.75 23.5607 27.4982 23.8125 27.1875 23.8125H24.9375C24.6268 23.8125 24.375 23.5607 24.375 23.25C24.375 22.9393 24.6268 22.6875 24.9375 22.6875H27.1875Z" fill="#1B1B1B"></path><path d="M27.1875 18.1875C27.4982 18.1875 27.75 18.4393 27.75 18.75C27.75 19.0607 27.4982 19.3125 27.1875 19.3125H24.9375C24.6268 19.3125 24.375 19.0607 24.375 18.75C24.375 18.4393 24.6268 18.1875 24.9375 18.1875H27.1875Z" fill="#1B1B1B"></path><path d="M15.375 15.375V26.625H26.625V15.375H15.375ZM27.75 26.625C27.75 27.2463 27.2463 27.75 26.625 27.75H15.375C14.7537 27.75 14.25 27.2463 14.25 26.625V15.375C14.25 14.7537 14.7537 14.25 15.375 14.25H26.625C27.2463 14.25 27.75 14.7537 27.75 15.375V26.625Z" fill="#1B1B1B"></path><path d="M21 20.4375C21 19.8162 20.4963 19.3125 19.875 19.3125C19.2537 19.3125 18.75 19.8162 18.75 20.4375C18.75 21.0588 19.2537 21.5625 19.875 21.5625C20.4963 21.5625 21 21.0588 21 20.4375ZM22.125 20.4375C22.125 21.6801 21.1176 22.6875 19.875 22.6875C18.6324 22.6875 17.625 21.6801 17.625 20.4375C17.625 19.1949 18.6324 18.1875 19.875 18.1875C21.1176 18.1875 22.125 19.1949 22.125 20.4375Z" fill="#1B1B1B"></path><path d="M19.8748 21.5625C21.1646 21.5625 22.3533 22.4385 22.6697 23.673C22.7467 23.9739 22.5652 24.2803 22.2643 24.3574C21.9634 24.4345 21.657 24.2529 21.5798 23.952C21.3984 23.2445 20.6816 22.6875 19.8748 22.6875C19.0684 22.6875 18.3518 23.2449 18.1697 23.9526C18.0923 24.2534 17.7855 24.4348 17.4847 24.3574C17.1839 24.28 17.0025 23.9733 17.0798 23.6724C17.397 22.4395 18.5845 21.5625 19.8748 21.5625Z" fill="#1B1B1B"></path><path d="M24.375 27.1875V14.8125C24.375 14.5018 24.6268 14.25 24.9375 14.25C25.2482 14.25 25.5 14.5018 25.5 14.8125V27.1875C25.5 27.4982 25.2482 27.75 24.9375 27.75C24.6268 27.75 24.375 27.4982 24.375 27.1875Z" fill="#1B1B1B"></path></svg>