<svg xmlns="http://www.w3.org/2000/svg" width="42" height="76" viewBox="0 0 42 76" fill="none"><path d="M21 0.5C32.3218 0.5 41.5 9.67816 41.5 21C41.5 32.3218 32.3218 41.5 21 41.5C9.67816 41.5 0.5 32.3218 0.5 21C0.5 9.67816 9.67816 0.5 21 0.5Z" fill="#FFFDFA"></path><path d="M21 0.5C32.3218 0.5 41.5 9.67816 41.5 21C41.5 32.3218 32.3218 41.5 21 41.5C9.67816 41.5 0.5 32.3218 0.5 21C0.5 9.67816 9.67816 0.5 21 0.5Z" stroke="#F1EDE8"></path><path d="M14.8125 15.9375V26.2773L16.2484 25.5593C16.4068 25.4801 16.5932 25.4801 16.7516 25.5593L18.75 26.5585L20.7484 25.5593C20.9068 25.4801 21.0932 25.4801 21.2516 25.5593L23.25 26.5585L25.2484 25.5593C25.4068 25.4801 25.5932 25.4801 25.7516 25.5593L27.1875 26.2773V15.9375H14.8125ZM28.3125 27.1875C28.3125 27.3824 28.2114 27.5635 28.0455 27.666C27.8797 27.7684 27.6727 27.7778 27.4984 27.6907L25.5 26.6915L23.5016 27.6907C23.3432 27.7699 23.1568 27.7699 22.9984 27.6907L21 26.6915L19.0016 27.6907C18.8432 27.7699 18.6568 27.7699 18.4984 27.6907L16.5 26.6915L14.5016 27.6907C14.3273 27.7778 14.1203 27.7684 13.9545 27.666C13.7886 27.5635 13.6875 27.3824 13.6875 27.1875V15.9375C13.6875 15.6391 13.8061 15.3531 14.0171 15.1421C14.2281 14.9311 14.5141 14.8125 14.8125 14.8125H27.1875C27.4859 14.8125 27.7719 14.9311 27.9829 15.1421C28.1939 15.3531 28.3125 15.6391 28.3125 15.9375V27.1875Z" fill="#1B1B1B"></path><path d="M25.5 19.3125C25.8107 19.3125 26.0625 19.5643 26.0625 19.875C26.0625 20.1857 25.8107 20.4375 25.5 20.4375H22.125C21.8143 20.4375 21.5625 20.1857 21.5625 19.875C21.5625 19.5643 21.8143 19.3125 22.125 19.3125H25.5Z" fill="#1B1B1B"></path><path d="M25.5 21.5625C25.8107 21.5625 26.0625 21.8143 26.0625 22.125C26.0625 22.4357 25.8107 22.6875 25.5 22.6875H22.125C21.8143 22.6875 21.5625 22.4357 21.5625 22.125C21.5625 21.8143 21.8143 21.5625 22.125 21.5625H25.5Z" fill="#1B1B1B"></path><path d="M19.875 18.1875C20.1857 18.1875 20.4375 18.4393 20.4375 18.75V23.25C20.4375 23.5607 20.1857 23.8125 19.875 23.8125H16.5C16.1893 23.8125 15.9375 23.5607 15.9375 23.25V18.75C15.9375 18.4393 16.1893 18.1875 16.5 18.1875H19.875ZM17.0625 22.6875H19.3125V19.3125H17.0625V22.6875Z" fill="#1B1B1B"></path><rect width="1" height="34" transform="translate(20.5 42)" fill="#F1EDE8"></rect></svg>