<svg xmlns="http://www.w3.org/2000/svg" width="42" height="76" viewBox="0 0 42 76" fill="none"><path d="M21 0.5C32.3218 0.5 41.5 9.67816 41.5 21C41.5 32.3218 32.3218 41.5 21 41.5C9.67816 41.5 0.5 32.3218 0.5 21C0.5 9.67816 9.67816 0.5 21 0.5Z" fill="#FFFDFA"></path><path d="M21 0.5C32.3218 0.5 41.5 9.67816 41.5 21C41.5 32.3218 32.3218 41.5 21 41.5C9.67816 41.5 0.5 32.3218 0.5 21C0.5 9.67816 9.67816 0.5 21 0.5Z" stroke="#F1EDE8"></path><path d="M23.25 14.25C23.5607 14.25 23.8125 14.5018 23.8125 14.8125V23.25C23.8125 23.5607 23.5607 23.8125 23.25 23.8125H14.8125C14.5018 23.8125 14.25 23.5607 14.25 23.25V14.8125C14.25 14.5018 14.5018 14.25 14.8125 14.25H23.25ZM15.375 22.6875H22.6875V15.375H15.375V22.6875Z" fill="#1B1B1B"></path><path d="M27.1875 18.1875C27.4982 18.1875 27.75 18.4393 27.75 18.75V27.1875C27.75 27.4982 27.4982 27.75 27.1875 27.75H18.75C18.4393 27.75 18.1875 27.4982 18.1875 27.1875V18.75C18.1875 18.4393 18.4393 18.1875 18.75 18.1875H27.1875ZM19.3125 26.625H26.625V19.3125H19.3125V26.625Z" fill="#1B1B1B"></path><path d="M18.3523 18.3523C18.5719 18.1326 18.928 18.1326 19.1477 18.3523L23.6477 22.8523C23.8673 23.0719 23.8673 23.428 23.6477 23.6477C23.428 23.8673 23.0719 23.8673 22.8523 23.6477L18.3523 19.1477C18.1326 18.928 18.1326 18.5719 18.3523 18.3523Z" fill="#1B1B1B"></path><rect width="1" height="34" transform="translate(20.5 42)" fill="#F1EDE8"></rect></svg>